<svg width="24" height="25" viewBox="0 0 24 25" fill="none" xmlns="http://www.w3.org/2000/svg">
<path fill-rule="evenodd" clip-rule="evenodd" d="M17 12.5H15C15 10.8431 13.6569 9.5 12 9.5C10.3431 9.5 9 10.8431 9 12.5H7C7 9.73858 9.23858 7.5 12 7.5C14.7614 7.5 17 9.73858 17 12.5Z" fill="#1D1D1F"/>
<path d="M13 2.5C13 1.94772 12.5523 1.5 12 1.5C11.4477 1.5 11 1.94772 11 2.5V4.5C11 5.05228 11.4477 5.5 12 5.5C12.5523 5.5 13 5.05228 13 4.5V2.5Z" fill="#1D1D1F"/>
<path d="M13 20.5C13 19.9477 12.5523 19.5 12 19.5C11.4477 19.5 11 19.9477 11 20.5V22.5C11 23.0523 11.4477 23.5 12 23.5C12.5523 23.5 13 23.0523 13 22.5V20.5Z" fill="#1D1D1F"/>
<path d="M22 13.5C22.5523 13.5 23 13.0523 23 12.5C23 11.9477 22.5523 11.5 22 11.5H20C19.4477 11.5 19 11.9477 19 12.5C19 13.0523 19.4477 13.5 20 13.5H22Z" fill="#1D1D1F"/>
<path d="M4 13.5C4.55228 13.5 5 13.0523 5 12.5C5 11.9477 4.55228 11.5 4 11.5H2C1.44772 11.5 1 11.9477 1 12.5C1 13.0523 1.44772 13.5 2 13.5H4Z" fill="#1D1D1F"/>
<path d="M4.22173 6.13606C3.8312 5.74554 3.8312 5.11237 4.22173 4.72185C4.61225 4.33132 5.24542 4.33132 5.63594 4.72185L7.05015 6.13606C7.44068 6.52659 7.44068 7.15975 7.05015 7.55028C6.65963 7.9408 6.02646 7.9408 5.63594 7.55028L4.22173 6.13606Z" fill="#1D1D1F"/>
<path d="M16.9496 18.864C16.5591 18.4735 16.5591 17.8403 16.9496 17.4498C17.3402 17.0592 17.9733 17.0592 18.3639 17.4498L19.7781 18.864C20.1686 19.2545 20.1686 19.8877 19.7781 20.2782C19.3876 20.6687 18.7544 20.6687 18.3639 20.2782L16.9496 18.864Z" fill="#1D1D1F"/>
<path d="M18.3639 4.72185C18.7544 4.33132 19.3876 4.33132 19.7781 4.72185C20.1686 5.11237 20.1686 5.74554 19.7781 6.13606L18.3639 7.55028C17.9733 7.9408 17.3402 7.9408 16.9496 7.55028C16.5591 7.15975 16.5591 6.52659 16.9496 6.13606L18.3639 4.72185Z" fill="#1D1D1F"/>
<path d="M5.63594 17.4498C6.02646 17.0592 6.65963 17.0592 7.05015 17.4498C7.44068 17.8403 7.44068 18.4735 7.05015 18.864L5.63594 20.2782C5.24542 20.6687 4.61225 20.6687 4.22173 20.2782C3.8312 19.8877 3.8312 19.2545 4.22173 18.864L5.63594 17.4498Z" fill="#1D1D1F"/>
<path fill-rule="evenodd" clip-rule="evenodd" d="M12.0002 17.5C14.7617 17.5 17.0002 15.2614 17.0002 12.5C17.0002 9.73857 14.7617 7.5 12.0002 7.5C9.23882 7.5 7.00024 9.73857 7.00024 12.5C7.00024 15.2614 9.23882 17.5 12.0002 17.5ZM12.0002 15.5C13.6571 15.5 15.0002 14.1569 15.0002 12.5C15.0002 10.8431 13.6571 9.5 12.0002 9.5C10.3434 9.5 9.00024 10.8431 9.00024 12.5C9.00024 14.1569 10.3434 15.5 12.0002 15.5Z" fill="#1D1D1F"/>
</svg>
