<svg width="24" height="25" viewBox="0 0 24 25" fill="none" xmlns="http://www.w3.org/2000/svg">
<path fill-rule="evenodd" clip-rule="evenodd" d="M12 19.5C14.8911 19.5 17.3728 17.7473 18.4406 15.2465C19.3204 15.0115 20.1364 14.6206 20.8573 14.1052C20.1003 18.3099 16.4227 21.5 12 21.5C7.02944 21.5 3 17.4706 3 12.5C3 8.0773 6.19013 4.39969 10.3949 3.64272C9.87943 4.36362 9.4885 5.17964 9.25351 6.05935C6.75269 7.12714 4.99998 9.60889 4.99998 12.5C4.99998 16.366 8.13399 19.5 12 19.5Z" fill="#1D1D1F"/>
<path fill-rule="evenodd" clip-rule="evenodd" d="M20.8573 14.1052C19.6291 14.9833 18.1249 15.5 16.5 15.5C12.3579 15.5 9 12.1421 9 8C9 6.3751 9.51674 4.87088 10.3949 3.64272C10.9157 3.54895 11.4521 3.5 12 3.5C12.4148 3.5 12.8231 3.52806 13.223 3.5824C11.8741 4.58472 11 6.19028 11 8C11 11.0376 13.4624 13.5 16.5 13.5C18.3097 13.5 19.9153 12.626 20.9176 11.277C20.9719 11.6769 21 12.0852 21 12.5C21 13.0479 20.951 13.5843 20.8573 14.1052Z" fill="#1D1D1F"/>
</svg>
