<svg width="183" height="32" viewBox="0 0 183 32" fill="none" xmlns="http://www.w3.org/2000/svg">
<g clip-path="url(#clip0_222_2700)">
<path d="M33.9489 31.374C32.2115 31.374 31.3602 30.4011 31.3602 29.1154C31.3157 28.7725 31.3499 28.4239 31.4602 28.0962C31.5705 27.7684 31.754 27.4701 31.9969 27.224C32.2397 26.9778 32.5355 26.7901 32.8617 26.6753C33.1879 26.5605 33.5359 26.5216 33.8794 26.5614C34.3611 26.5129 34.8461 26.6136 35.2687 26.8498C35.6913 27.0859 36.0311 27.4462 36.2423 27.8819L36.8156 27.6039C36.5384 27.0765 36.1123 26.6422 35.5903 26.3549C35.0682 26.0676 34.4733 25.9401 33.8794 25.9881C33.4623 25.9429 33.0403 25.9861 32.641 26.1148C32.2416 26.2435 31.8738 26.4549 31.5616 26.7351C31.2493 27.0154 30.9996 27.3582 30.8287 27.7414C30.6577 28.1246 30.5693 28.5395 30.5693 28.959C30.5693 29.3786 30.6577 29.7935 30.8287 30.1767C30.9996 30.5598 31.2493 30.9027 31.5616 31.183C31.8738 31.4632 32.2416 31.6746 32.641 31.8033C33.0403 31.932 33.4623 31.9752 33.8794 31.93C34.4908 31.9904 35.1062 31.8653 35.6455 31.5709C36.1847 31.2765 36.6227 30.8264 36.9025 30.2795L36.3118 30.0362C36.0902 30.4644 35.7488 30.8189 35.3293 31.0565C34.9097 31.294 34.4301 31.4044 33.9489 31.374Z" fill="black"/>
<path d="M42.2533 26.0398C41.8362 25.9946 41.4142 26.0378 41.0149 26.1665C40.6155 26.2952 40.2478 26.5066 39.9355 26.7868C39.6233 27.0671 39.3735 27.41 39.2026 27.7931C39.0316 28.1763 38.9432 28.5912 38.9432 29.0108C38.9432 29.4303 39.0316 29.8452 39.2026 30.2284C39.3735 30.6116 39.6233 30.9544 39.9355 31.2347C40.2478 31.515 40.6155 31.7263 41.0149 31.855C41.4142 31.9837 41.8362 32.0269 42.2533 31.9817C42.6672 32.0225 43.0851 31.9774 43.4807 31.8493C43.8764 31.7212 44.2414 31.5128 44.5528 31.2372C44.8643 30.9617 45.1155 30.6248 45.2909 30.2476C45.4662 29.8705 45.5618 29.4613 45.5718 29.0455C45.5768 28.6222 45.4919 28.2027 45.3226 27.8147C45.1533 27.4267 44.9035 27.0791 44.5898 26.795C44.276 26.5108 43.9055 26.2965 43.5027 26.1663C43.0999 26.0361 42.674 25.993 42.2533 26.0398ZM42.2533 31.3736C41.9166 31.4144 41.5751 31.3832 41.2513 31.2822C40.9275 31.1813 40.6288 31.0127 40.375 30.7877C40.1211 30.5628 39.9179 30.2865 39.7787 29.9772C39.6396 29.6679 39.5676 29.3326 39.5676 28.9934C39.5676 28.6542 39.6396 28.3189 39.7787 28.0096C39.9179 27.7003 40.1211 27.424 40.375 27.199C40.6288 26.9741 40.9275 26.8055 41.2513 26.7045C41.5751 26.6035 41.9166 26.5724 42.2533 26.6131C42.5901 26.5724 42.9316 26.6035 43.2554 26.7045C43.5792 26.8055 43.8779 26.9741 44.1317 27.199C44.3855 27.424 44.5887 27.7003 44.7279 28.0096C44.8671 28.3189 44.9391 28.6542 44.9391 28.9934C44.9391 29.3326 44.8671 29.6679 44.7279 29.9772C44.5887 30.2865 44.3855 30.5628 44.1317 30.7877C43.8779 31.0127 43.5792 31.1813 43.2554 31.2822C42.9316 31.3832 42.5901 31.4144 42.2533 31.3736Z" fill="black"/>
<path d="M48.4903 27.6386C48.4903 26.9089 49.2895 26.6136 50.4362 26.6136C50.873 26.5767 51.3122 26.6477 51.7151 26.8204C52.118 26.9931 52.4724 27.2622 52.7469 27.6039L53.2508 27.2043C52.8953 26.802 52.4515 26.4875 51.9541 26.2856C51.4568 26.0836 50.9194 25.9996 50.3841 26.0402C48.8378 26.0402 47.7259 26.5267 47.7259 27.7776C47.7259 30.071 52.6601 28.5595 52.6601 30.2795C52.6601 31.1482 51.4613 31.4088 50.5926 31.4088C50.1028 31.4682 49.6061 31.3928 49.1561 31.1908C48.706 30.9887 48.3196 30.6676 48.0386 30.2621L47.5 30.7138C47.8569 31.164 48.3199 31.5187 48.8474 31.7461C49.375 31.9735 49.9507 32.0665 50.5231 32.0169C52.4342 32.0169 53.355 31.2177 53.355 30.2795C53.4245 27.7081 48.4903 29.3413 48.4903 27.6386Z" fill="black"/>
<path d="M60.9474 26.6304L59.0363 30.9392L57.8549 28.2462L56.9514 26.1787H55.8916V31.8427H56.5171V26.7868H56.5518L57.3336 28.5937L58.7583 31.8427H59.349L61.5381 26.7868H61.5729V31.8427H62.1984V26.1787H61.1385L60.9474 26.6304Z" fill="black"/>
<path d="M65.7429 29.2018H69.3741V28.5937H65.7429V26.7868H70.0864V26.1787H65.048V31.8427H70.1907V31.2346H65.7429V29.2018Z" fill="black"/>
<path d="M71.9111 26.7868H74.6388V31.8427H75.3164V26.7868H78.0441V26.1787H71.9111V26.7868Z" fill="black"/>
<path d="M81.0145 26.1787H80.3369V31.8253H81.0145V26.1787Z" fill="black"/>
<path d="M86.87 31.374C85.1326 31.374 84.2813 30.4011 84.2813 29.1154C84.2386 28.7789 84.2718 28.437 84.3782 28.115C84.4847 27.7929 84.6618 27.4986 84.8967 27.2538C85.1315 27.009 85.4181 26.8198 85.7354 26.7C86.0528 26.5802 86.393 26.5328 86.731 26.5614C87.2127 26.5129 87.6976 26.6136 88.1202 26.8498C88.5428 27.0859 88.8827 27.4462 89.0938 27.8819L89.6846 27.6039C89.4026 27.0766 88.9731 26.6429 88.4485 26.3559C87.9239 26.0689 87.3271 25.9411 86.731 25.9881C86.3139 25.9429 85.8919 25.9861 85.4925 26.1148C85.0932 26.2435 84.7254 26.4549 84.4132 26.7351C84.1009 27.0154 83.8512 27.3582 83.6802 27.7414C83.5093 28.1246 83.4209 28.5395 83.4209 28.959C83.4209 29.3786 83.5093 29.7935 83.6802 30.1767C83.8512 30.5598 84.1009 30.9027 84.4132 31.183C84.7254 31.4632 85.0932 31.6746 85.4925 31.8033C85.8919 31.932 86.3139 31.9752 86.731 31.93C87.3443 31.9869 87.9606 31.8604 88.5019 31.5665C89.0432 31.2727 89.485 30.8247 89.7714 30.2795L89.1633 30.0362C88.9467 30.4533 88.6163 30.8004 88.2104 31.0372C87.8044 31.274 87.3396 31.3908 86.87 31.374Z" fill="black"/>
<path d="M99.1703 26.179H96.373V31.7735H99.0313C100.525 31.7735 102.28 31.1828 102.28 28.8894C102.287 28.4963 102.209 28.1064 102.049 27.747C101.89 27.3877 101.653 27.0676 101.357 26.8093C101.061 26.551 100.711 26.3607 100.333 26.2518C99.9557 26.1429 99.5587 26.1181 99.1703 26.179ZM99.0313 31.2349H97.068V26.7871H99.1703C99.4708 26.7454 99.7769 26.771 100.066 26.8619C100.356 26.9529 100.622 27.107 100.844 27.3131C101.067 27.5192 101.241 27.7722 101.354 28.0538C101.468 28.3354 101.517 28.6386 101.498 28.9415C101.523 29.2642 101.474 29.5882 101.356 29.8896C101.238 30.1909 101.054 30.4618 100.817 30.6822C100.58 30.9025 100.296 31.0666 99.9872 31.1623C99.678 31.258 99.3513 31.2828 99.0313 31.2349Z" fill="black"/>
<path d="M107.597 26.0398C107.18 25.9946 106.758 26.0378 106.359 26.1665C105.959 26.2952 105.592 26.5066 105.279 26.7868C104.967 27.0671 104.717 27.41 104.546 27.7931C104.375 28.1763 104.287 28.5912 104.287 29.0108C104.287 29.4303 104.375 29.8452 104.546 30.2284C104.717 30.6116 104.967 30.9544 105.279 31.2347C105.592 31.515 105.959 31.7263 106.359 31.855C106.758 31.9837 107.18 32.0269 107.597 31.9817C108.011 32.0225 108.429 31.9774 108.825 31.8493C109.22 31.7212 109.585 31.5128 109.897 31.2372C110.208 30.9617 110.459 30.6248 110.635 30.2476C110.81 29.8705 110.906 29.4613 110.916 29.0455C110.921 28.6222 110.836 28.2027 110.666 27.8147C110.497 27.4267 110.247 27.0791 109.934 26.795C109.62 26.5108 109.249 26.2965 108.847 26.1663C108.444 26.0361 108.018 25.993 107.597 26.0398ZM107.597 31.3736C107.136 31.3333 106.697 31.1604 106.332 30.8758C105.967 30.5913 105.692 30.2073 105.541 29.7701C105.39 29.3329 105.368 28.8613 105.478 28.412C105.589 27.9628 105.827 27.5551 106.164 27.2382C106.501 26.9213 106.923 26.7087 107.378 26.6261C107.834 26.5435 108.303 26.5943 108.73 26.7725C109.157 26.9507 109.523 27.2487 109.785 27.6304C110.046 28.0121 110.191 28.4614 110.203 28.9239C110.221 29.2638 110.164 29.6033 110.037 29.919C109.91 30.2347 109.715 30.5189 109.467 30.752C109.219 30.9851 108.924 31.1614 108.601 31.2688C108.278 31.3761 107.935 31.4119 107.597 31.3736Z" fill="black"/>
<path d="M116.301 31.374C114.564 31.374 113.713 30.4011 113.713 29.1154C113.668 28.7725 113.702 28.4239 113.813 28.0962C113.923 27.7684 114.107 27.4701 114.349 27.224C114.592 26.9778 114.888 26.7901 115.214 26.6753C115.54 26.5605 115.888 26.5216 116.232 26.5614C116.714 26.5129 117.199 26.6136 117.621 26.8498C118.044 27.0859 118.384 27.4462 118.595 27.8819L119.186 27.6039C118.904 27.0766 118.474 26.6429 117.95 26.3559C117.425 26.0689 116.828 25.9411 116.232 25.9881C115.815 25.9429 115.393 25.9861 114.994 26.1148C114.594 26.2435 114.226 26.4549 113.914 26.7351C113.602 27.0154 113.352 27.3582 113.181 27.7414C113.01 28.1246 112.922 28.5395 112.922 28.959C112.922 29.3786 113.01 29.7935 113.181 30.1767C113.352 30.5598 113.602 30.9027 113.914 31.183C114.226 31.4632 114.594 31.6746 114.994 31.8033C115.393 31.932 115.815 31.9752 116.232 31.93C116.845 31.9869 117.462 31.8604 118.003 31.5665C118.544 31.2727 118.986 30.8247 119.272 30.2795L118.664 30.0362C118.443 30.4644 118.101 30.8189 117.682 31.0565C117.262 31.294 116.783 31.4044 116.301 31.374Z" fill="black"/>
<path d="M121.113 26.7868H123.841V31.8427H124.519V26.7868H127.246V26.1787H121.113V26.7868Z" fill="black"/>
<path d="M132.181 26.0398C131.76 25.993 131.335 26.0361 130.932 26.1663C130.529 26.2965 130.158 26.5108 129.845 26.795C129.531 27.0791 129.281 27.4267 129.112 27.8147C128.943 28.2027 128.858 28.6222 128.863 29.0455C128.964 29.8518 129.356 30.5934 129.966 31.1309C130.575 31.6685 131.36 31.9652 132.172 31.9652C132.985 31.9652 133.77 31.6685 134.379 31.1309C134.989 30.5934 135.381 29.8518 135.482 29.0455C135.487 28.6239 135.402 28.206 135.234 27.8193C135.066 27.4327 134.818 27.086 134.506 26.8021C134.194 26.5182 133.826 26.3035 133.425 26.1721C133.024 26.0407 132.6 25.9956 132.181 26.0398ZM132.181 31.3736C131.72 31.3333 131.281 31.1604 130.916 30.8758C130.551 30.5913 130.276 30.2073 130.125 29.7701C129.973 29.3329 129.952 28.8613 130.062 28.412C130.173 27.9628 130.411 27.5551 130.748 27.2382C131.085 26.9213 131.507 26.7087 131.962 26.6261C132.417 26.5435 132.887 26.5943 133.314 26.7725C133.741 26.9507 134.107 27.2487 134.369 27.6304C134.63 28.0121 134.775 28.4614 134.787 28.9239C134.802 29.263 134.743 29.6012 134.615 29.9155C134.486 30.2297 134.292 30.5127 134.045 30.7452C133.798 30.9776 133.503 31.1541 133.181 31.2625C132.86 31.371 132.519 31.4089 132.181 31.3736Z" fill="black"/>
<path d="M143.457 27.7598C143.457 26.3698 142.136 26.1787 141.233 26.1787H137.967V31.7732H138.644V29.3408H140.868L142.605 31.8427H143.457L141.58 29.3234C142.036 29.3621 142.488 29.2197 142.84 28.927C143.191 28.6342 143.413 28.2149 143.457 27.7598ZM138.644 28.7327V26.7868H141.076C142.067 26.7868 142.814 26.9258 142.814 27.7598C142.814 28.5937 142.084 28.7327 141.076 28.7327H138.644Z" fill="black"/>
<path d="M146.706 27.6382C146.706 26.9085 147.505 26.6131 148.652 26.6131C149.089 26.5763 149.528 26.6473 149.931 26.82C150.334 26.9927 150.688 27.2617 150.963 27.6034L151.466 27.2038C151.118 26.8112 150.686 26.5025 150.201 26.3009C149.717 26.0993 149.193 26.01 148.669 26.0398C147.123 26.0398 146.011 26.5262 146.011 27.7772C146.011 30.0706 150.945 28.559 150.945 30.279C150.945 31.1477 149.746 31.4084 148.878 31.4084C148.388 31.4678 147.891 31.3924 147.441 31.1903C146.991 30.9882 146.605 30.6672 146.324 30.2617L145.785 30.7134C146.142 31.1636 146.605 31.5182 147.133 31.7456C147.66 31.973 148.236 32.0661 148.808 32.0165C150.719 32.0165 151.64 31.2172 151.64 30.279C151.64 27.7077 146.706 29.3408 146.706 27.6382Z" fill="black"/>
<path d="M26.9297 14.2775V10.5073L29.2926 8.7699L36.6765 15.7195H41.1242V15.0246H40.7768C40.5562 15.019 40.3392 14.9683 40.139 14.8757C39.9388 14.7831 39.7597 14.6504 39.6127 14.486L31.5338 7.17149L37.8579 2.3415C38.6919 1.71603 38.9177 1.57704 39.4737 1.57704H40.2903V0.725708H33.8445V1.57704H35.1823C35.7557 1.57704 35.9642 1.76815 35.9642 1.99401C35.9642 2.21988 35.8425 2.42837 35.4256 2.72373L26.9297 8.99576V2.23725C26.9297 1.64653 27.0687 1.50754 27.7463 1.50754H29.4837V0.725708H20.7967V1.57704H22.5341C23.1943 1.57704 23.3333 1.71603 23.3333 2.30675V14.2775C23.3333 14.8856 23.1943 15.0246 22.5341 15.0246H20.7967V15.8585H29.4837V15.0246H27.7984C27.0687 15.0246 26.9297 14.8856 26.9297 14.2775Z" fill="black"/>
<path d="M57.1429 15.0246H55.3013C54.6237 15.0246 54.4847 14.8856 54.4847 14.2775V2.23725C54.4847 1.64653 54.6237 1.49017 55.3013 1.49017H57.1429V0.725708H48.4559V1.55966H50.3844C51.062 1.55966 51.201 1.71603 51.201 2.30675V14.2775C51.201 14.8856 51.062 15.0246 50.3844 15.0246H48.4733V15.8585H57.1603L57.1429 15.0246Z" fill="black"/>
<path d="M84.6633 0.725708H78.3913V1.57704H80.1287C80.8062 1.57704 80.9452 1.71603 80.9452 2.30675V11.8972L70.7815 0.725708H64.8917V1.57704H66.4554C67.1329 1.57704 67.2719 1.71603 67.2719 2.30675V14.2775C67.2719 14.8856 67.1329 15.0246 66.4554 15.0246H64.718V15.8585H71.0247V15.0246H69.2873C68.6097 15.0246 68.4707 14.8856 68.4707 14.2775V3.00171L79.1036 14.6076C79.5283 15.0294 79.8649 15.5314 80.0939 16.0844H82.1788V2.23725C82.1788 1.64653 82.3178 1.50754 82.9954 1.50754H84.7328L84.6633 0.725708Z" fill="black"/>
<path d="M132.042 11.1328H131.365L130.565 13.7215C130.305 14.6076 130.131 14.6945 129.123 14.6945H121.792V2.23725C121.792 1.64653 121.948 1.50754 122.625 1.50754H124.363V0.725708H115.676V1.57704H117.413C118.074 1.57704 118.213 1.71603 118.213 2.30675V14.2775C118.213 14.8856 118.074 15.0246 117.413 15.0246H115.676V15.8585H132.042V11.1328Z" fill="black"/>
<path d="M153.204 1.57704H154.941C155.619 1.57704 155.758 1.71603 155.705 2.30675V10.1251C155.705 13.4261 153.516 15.0593 149.868 15.0593C146.949 15.0593 145.316 13.8779 145.316 10.6637V2.23725C145.316 1.64653 145.455 1.50754 146.132 1.50754H147.87V0.725708H139.461V1.57704H141.198C141.876 1.57704 142.015 1.71603 142.015 2.30675V10.5942C142.015 13.6694 143.752 16.0844 149.468 16.0844C154.437 16.0844 157.008 13.9474 157.008 9.41274V2.23725C157.008 1.64653 157.13 1.50754 157.808 1.50754H159.545V0.725708H153.117L153.204 1.57704Z" fill="black"/>
<path d="M179.126 7.83178C178.587 7.72754 178.5 7.72754 178.5 7.64067C178.5 7.5538 178.622 7.44955 178.952 7.44955C179.76 7.39452 180.518 7.04305 181.083 6.46263C181.647 5.88222 181.977 5.11377 182.01 4.30485C182.01 2.02884 179.994 0.743164 177.475 0.743164H167.138V1.57712H168.875C169.552 1.57712 169.691 1.71611 169.691 2.30683V14.2776C169.691 14.8857 169.552 15.0246 168.875 15.0246H167.138V15.8586H177.562C180.22 15.8586 183 14.8162 183 11.8973C182.989 10.8551 182.582 9.85604 181.863 9.10154C181.144 8.34705 180.166 7.89329 179.126 7.83178ZM173.097 1.57712H174.539C176.884 1.57712 178.344 2.44582 178.344 4.32222C178.344 6.5461 176.884 7.62329 174.539 7.62329H173.097V1.57712ZM175.234 15.0246C174.504 15.0246 173.809 15.0246 173.097 14.8857V8.30088H175.182C177.927 8.30088 179.421 9.72556 179.421 11.6367C179.421 14.3992 177.458 15.0246 175.234 15.0246Z" fill="black"/>
<path d="M2.48448 3.97481C2.48448 2.67176 3.71803 1.29921 6.84534 1.29921C7.95904 1.25613 9.04552 1.64979 9.87314 2.39628C10.7008 3.14276 11.204 4.18301 11.2757 5.29524H12.1618V0.691115H11.2757C10.9282 2.42852 9.53831 0.5 6.65423 0.5C2.90145 0.5 0.416975 2.23741 0.416975 5.08675C0.416975 11.463 11.0846 8.04035 11.0846 12.0364C11.0846 13.8954 9.34719 15.3548 6.20251 15.3548C3.05782 15.3548 1.30305 14.3993 0.886072 10.9244H0V15.9977H0.92082C0.92082 14.4166 2.77983 16.3625 6.30675 16.3625C10.546 16.3625 12.8915 14.1734 12.8915 11.1503C12.8915 4.91301 2.48448 8.71793 2.48448 3.97481Z" fill="black"/>
<path d="M108.031 14.3991L108.396 12.1231C106.134 14.081 103.221 15.1221 100.23 15.042C97.1551 15.042 94.688 13.1829 94.688 8.52669C94.688 3.48821 97.2767 1.57707 101.533 1.57707C105.199 1.57707 106.572 3.03649 107.11 5.53835L108.135 5.39936L107.91 1.68131C105.826 0.940766 103.621 0.604645 101.412 0.690989C94.3057 0.690989 90.9873 3.88782 90.9873 8.33558C91.0047 13.652 95.2092 16.1365 100.595 16.1365C103.185 16.237 105.754 15.6368 108.031 14.3991Z" fill="black"/>
</g>
<defs>
<clipPath id="clip0_222_2700">
<rect width="183" height="31.4818" fill="white" transform="translate(0 0.5)"/>
</clipPath>
</defs>
</svg>
