<svg width="24" height="25" viewBox="0 0 24 25" fill="none" xmlns="http://www.w3.org/2000/svg">
<path d="M2 17.0563H22" stroke="#1D1D1F" stroke-width="2" stroke-linecap="round"/>
<path fill-rule="evenodd" clip-rule="evenodd" d="M17 16.0563H15C15 14.3994 13.6569 13.0563 12 13.0563C10.3431 13.0563 9 14.3994 9 16.0563H7C7 13.2949 9.23858 11.0563 12 11.0563C14.7614 11.0563 17 13.2949 17 16.0563Z" fill="#1D1D1F"/>
<path d="M13 6.05627C13 5.50399 12.5523 5.05627 12 5.05627C11.4477 5.05627 11 5.50399 11 6.05627V8.05627C11 8.60856 11.4477 9.05627 12 9.05627C12.5523 9.05627 13 8.60856 13 8.05627V6.05627Z" fill="#1D1D1F"/>
<path d="M5.63597 8.27812C5.24544 7.8876 4.61228 7.8876 4.22176 8.27812C3.83123 8.66865 3.83123 9.30181 4.22176 9.69234L5.63597 11.1065C6.02649 11.4971 6.65966 11.4971 7.05018 11.1065C7.44071 10.716 7.44071 10.0829 7.05018 9.69234L5.63597 8.27812Z" fill="#1D1D1F"/>
<path d="M19.7781 9.69237C20.1686 9.30184 20.1686 8.66868 19.7781 8.27815C19.3876 7.88763 18.7544 7.88763 18.3639 8.27815L16.9497 9.69237C16.5591 10.0829 16.5591 10.7161 16.9497 11.1066C17.3402 11.4971 17.9734 11.4971 18.3639 11.1066L19.7781 9.69237Z" fill="#1D1D1F"/>
</svg>
